<?xml version="1.0" encoding="UTF-8" standalone="no"?>
<!-- Created using Krita: https://krita.org -->

<svg
   width="737.28pt"
   height="737.28pt"
   viewBox="0 0 737.28 737.28"
   version="1.1"
   id="svg1"
   sodipodi:docname="ltm-labs-dark.svg"
   inkscape:version="1.3.2 (091e20e, 2023-11-25, custom)"
   inkscape:export-filename="ltm-labs-dark.png"
   inkscape:export-xdpi="99.999992"
   inkscape:export-ydpi="99.999992"
   xmlns:inkscape="http://www.inkscape.org/namespaces/inkscape"
   xmlns:sodipodi="http://sodipodi.sourceforge.net/DTD/sodipodi-0.dtd"
   xmlns="http://www.w3.org/2000/svg"
   xmlns:svg="http://www.w3.org/2000/svg">
  <sodipodi:namedview
     id="namedview1"
     pagecolor="#505050"
     bordercolor="#ffffff"
     borderopacity="1"
     inkscape:showpageshadow="0"
     inkscape:pageopacity="0"
     inkscape:pagecheckerboard="1"
     inkscape:deskcolor="#505050"
     inkscape:document-units="pt"
     inkscape:zoom="1.3997395"
     inkscape:cx="492.59166"
     inkscape:cy="491.52003"
     inkscape:window-width="2880"
     inkscape:window-height="1676"
     inkscape:window-x="-12"
     inkscape:window-y="-12"
     inkscape:window-maximized="1"
     inkscape:current-layer="svg1" />
  <defs
     id="defs1" />
  <path
     id="shape0"
     transform="matrix(0.719999942779545 0 0 0.719999942779545 1.46484363631316e-05 1.46484363773425e-05)"
     fill="#000000"
     stroke-opacity="0"
     stroke="#000000"
     stroke-width="0"
     stroke-linecap="square"
     stroke-linejoin="bevel"
     d="M1024 512C1024 229.23 794.77 1.73141e-14 512 0C229.23 -1.73141e-14 3.46282e-14 229.23 0 512C-3.46282e-14 794.77 229.23 1024 512 1024C794.77 1024 1024 794.77 1024 512Z"
     sodipodi:nodetypes="ccccc" />
  <path
     id="shape01"
     fill="#ffffff"
     stroke-opacity="0"
     stroke="#000000"
     stroke-width="0"
     stroke-linecap="square"
     stroke-linejoin="bevel"
     d="m 277.44766,134.00423 c 0.009,-1.31494 -0.24622,-2.61847 -0.74754,-3.83384 -0.66126,-1.55962 -1.72424,-2.91646 -3.08029,-3.9317 -1.35616,-1.01502 -2.95765,-1.65281 -4.64058,-1.84773 -1.68304,-0.19493 -3.38705,0.0598 -4.93961,0.73796 -47.61345,20.45607 -88.19764,54.43688 -116.70355,97.71608 -28.50591,43.27907 -43.70104,93.98422 -43.69517,145.80797 -0.0997,37.834 7.98958,75.24433 23.71098,109.65688 1.05193,2.33276 2.98936,4.15384 5.38241,5.0596 2.39333,0.90574 5.05095,0.8234 7.38352,-0.22904 2.33249,-1.05145 4.15354,-2.9895 5.05909,-5.38268 0.90548,-2.3933 0.82324,-5.05118 -0.22869,-7.38412 -18.06546,-39.78821 -25.20193,-83.68264 -20.67163,-127.14472 4.53034,-43.46226 20.56574,-84.94122 46.44822,-120.14814 25.88265,-35.20656 60.68879,-62.8847 100.81909,-80.17248 1.75681,-0.73052 3.25669,-1.96771 4.30705,-3.55321 1.05138,-1.58559 1.60725,-3.44859 1.5967,-5.35083 z m 245.15038,24.03805 c 9.4e-4,-1.5642 -0.37855,-3.10531 -1.10802,-4.48857 -0.73017,-1.38311 -1.78724,-2.56689 -3.08021,-3.44744 -44.03868,-30.34041 -96.29282,-46.55234 -149.7699,-46.46595 -21.10308,-0.0195 -42.13329,2.46442 -62.65093,7.39927 -2.03282,0.43832 -3.87101,1.52081 -5.23945,3.08588 -1.36969,1.56507 -2.19777,3.53087 -2.36256,5.60378 -0.16395,2.073 0.34491,4.14466 1.45006,5.90584 1.10598,1.7612 2.75059,3.11965 4.68848,3.87262 1.93885,0.75297 4.06848,0.86095 6.07338,0.30803 19.01286,-4.5454 38.49248,-6.84874 58.04102,-6.86249 49.60698,-0.0807 98.08411,14.9288 138.96879,43.02502 1.39054,0.96414 3.01215,1.54522 4.69898,1.68432 1.68674,0.13937 3.38041,-0.16802 4.91088,-0.89093 1.53063,-0.72312 2.84364,-1.83659 3.80776,-3.2279 1.0264,-1.65127 1.57076,-3.55711 1.57172,-5.50148 z m 111.04074,210.61069 c 0.10737,-34.98275 -6.76429,-69.63952 -20.2127,-101.93479 -13.4474,-32.29503 -33.2039,-61.58561 -58.10804,-86.15215 -1.80952,-1.80669 -4.26501,-2.82176 -6.82107,-2.82 -2.55698,0.001 -5.0105,1.02035 -6.81709,2.82953 -1.80657,1.80918 -2.82155,4.26457 -2.81963,6.82129 0.001,2.55682 1.01971,5.01083 2.82922,6.81745 39.76425,39.49384 64.86003,91.41816 71.10213,147.11595 6.24214,55.69676 -6.73667,111.88902 -36.77203,159.20612 -24.40294,38.23375 -58.8479,69.03654 -99.55905,89.03093 -2.28681,1.12327 -4.0359,3.11117 -4.85819,5.5226 -0.82329,2.41151 -0.65461,5.05291 0.46855,7.33988 1.12337,2.28687 3.11109,4.03601 5.52143,4.85933 2.41138,0.82238 5.05375,0.65375 7.34046,-0.46977 44.60411,-21.77773 82.20336,-55.6593 108.4924,-97.76418 26.28909,-42.10499 40.22619,-90.76296 40.21361,-140.40219 z M 450.39195,613.71072 c 0.0153,-0.91245 -0.13132,-1.82104 -0.43139,-2.68357 -0.47633,-1.63136 -1.3753,-3.10926 -2.60591,-4.28149 -1.23072,-1.1731 -2.74874,-2.00027 -4.40195,-2.39806 -1.65238,-0.39769 -3.38126,-0.35171 -5.01059,0.1333 -49.14695,14.42182 -101.5947,13.1212 -149.96724,-3.71787 -48.3727,-16.83824 -90.29146,-48.38767 -119.86195,-90.21086 -1.4789,-2.07598 -3.72411,-3.48106 -6.23765,-3.90287 -2.51358,-0.42267 -5.09473,0.17161 -7.17037,1.65055 -2.07604,1.47889 -3.4809,3.72456 -3.90324,6.23859 -0.4222,2.51307 0.17205,5.09422 1.65085,7.17019 24.13199,33.96661 55.87981,61.81957 92.6969,81.32486 60.95942,32.14766 132.11234,39.29295 198.24617,19.90721 2.01256,-0.56447 3.78657,-1.77221 5.04968,-3.43803 1.26319,-1.66667 1.94669,-3.70048 1.94669,-5.79195 z M 177.77367,438.92679 c -0.0226,-1.09361 -0.20214,-2.17849 -0.53677,-3.22034 -1.71564,-4.79235 -3.22028,-9.87208 -4.60992,-14.80814 -0.65558,-2.47476 -2.26911,-4.59005 -4.48266,-5.87628 -2.21343,-1.2863 -4.85014,-1.64184 -7.32495,-0.98637 -2.47481,0.65569 -4.59011,2.26978 -5.87658,4.48277 -1.28642,2.21401 -1.64106,4.85071 -0.98556,7.32545 1.50468,5.4728 3.11483,10.94557 5.04127,16.19787 0.55129,1.61024 1.52173,3.04507 2.81082,4.15499 1.28915,1.11085 2.85108,1.85844 4.52475,2.16611 1.67376,0.30769 3.3995,0.1639 4.99906,-0.41691 1.88601,-0.63069 3.52534,-1.84126 4.68175,-3.4591 1.15665,-1.61788 1.77233,-3.56163 1.75879,-5.55035 z m 24.35306,-188.94033 c -9.8e-4,-2.07022 -0.66615,-4.08674 -1.89574,-5.75256 -1.2295,-1.66584 -2.96064,-2.89459 -4.93872,-3.50611 -1.97817,-0.61237 -4.1008,-0.57404 -6.05588,0.10733 -1.9552,0.68054 -3.64176,1.97057 -4.81139,3.67855 -24.73599,36.66377 -37.92798,79.91117 -37.86667,124.13924 0,7.83048 0.43134,15.66114 1.17894,23.50125 0.42451,2.41057 1.74939,4.57184 3.70472,6.04401 1.95545,1.47126 4.39889,2.147 6.83253,1.88722 2.43356,-0.25877 4.68017,-1.43391 6.2817,-3.28364 1.60162,-1.85076 2.44177,-4.24308 2.3491,-6.68904 -4.87507,-47.43687 6.97014,-95.1181 33.47704,-134.75897 1.1348,-1.55935 1.74521,-3.43884 1.74437,-5.36733 z m 31.86677,-37.12095 c 0.009,-2.42959 -0.91513,-4.77307 -2.57803,-6.54616 -1.73755,-1.87388 -4.14988,-2.98363 -6.70304,-3.08436 -2.55418,-0.10072 -5.04603,0.81659 -6.92542,2.54758 -4.18825,3.83378 -8.2615,8.05103 -12.22934,12.22979 -1.73556,1.8787 -2.65472,4.37159 -2.55406,6.92587 0.10066,2.55523 1.21336,4.96864 3.09084,6.70346 1.87744,1.73571 4.37034,2.65493 6.9254,2.55425 2.55507,-0.10061 4.96758,-1.2124 6.70319,-3.09099 3.53634,-3.83384 7.29335,-7.61969 11.15578,-11.15649 0.9737,-0.90565 1.7519,-2.00216 2.28771,-3.21946 0.53575,-1.21814 0.81746,-2.53326 0.82697,-3.86349 z m 123.49044,-55.59002 v -0.95844 c -0.2548,-2.54604 -1.50649,-4.89062 -3.48072,-6.51836 -1.97344,-1.6278 -4.51418,-2.40999 -7.06163,-2.17484 -37.1142,3.66558 -72.71416,16.61743 -103.50768,37.65776 -1.67628,1.15552 -2.94509,2.81304 -3.62184,4.73333 -0.67756,1.92023 -0.72941,4.00677 -0.14844,5.95855 0.5807,1.95153 1.76526,3.67013 3.38214,4.90756 1.61682,1.23731 3.58532,1.93124 5.62105,1.98208 2.03557,0.0507 4.03569,-0.54446 5.71208,-1.70024 28.09568,-19.24935 60.61811,-31.06289 94.51798,-34.33158 2.35747,-0.24659 4.54274,-1.35975 6.12794,-3.12247 1.58629,-1.76275 2.46206,-4.05271 2.45912,-6.42378 z m 46.96197,0.53679 c 0.0173,-2.35997 -0.84052,-4.6445 -2.40363,-6.41271 -1.56232,-1.76828 -3.72454,-2.89824 -6.06865,-3.17189 -5.75041,-0.74761 -11.58714,-1.17877 -17.49088,-1.50478 -2.03849,-0.0908 -4.05502,0.46595 -5.75807,1.5907 -1.70316,1.12477 -3.00652,2.76047 -3.72345,4.67164 -0.71689,1.91093 -0.8099,4.00055 -0.26647,5.96785 0.5436,1.96728 1.6964,3.71279 3.29214,4.98496 1.59581,1.27213 3.55465,2.00659 5.59333,2.0977 5.36698,0.21085 10.72447,0.6422 15.98615,1.28424 2.52922,0.30626 5.08047,-0.40249 7.08933,-1.96983 2.00879,-1.56753 3.31703,-3.86909 3.63524,-6.39735 0.0877,-0.38639 0.12369,-0.78307 0.1054,-1.17891 z m 160.82035,110.07823 c 0.0173,-1.61314 -0.39014,-3.20226 -1.17881,-4.61019 -28.85759,-53.32851 -78.75218,-93.13278 -137.1094,-108.89936 -2.46125,-0.66834 -5.08915,-0.33121 -7.30217,0.93647 -2.21192,1.26738 -3.83265,3.36435 -4.50053,5.82532 -0.6681,2.46104 -0.33173,5.08948 0.93627,7.30227 1.26697,2.21274 3.36406,3.83297 5.82516,4.50123 26.49224,7.29732 51.24017,19.86936 72.75732,36.96067 21.51714,17.09191 39.36457,38.35347 52.46791,62.50747 0.80394,1.49421 1.99061,2.74685 3.43779,3.63241 1.44703,0.88472 3.10422,1.36977 4.79962,1.40528 1.69641,0.0362 3.37171,-0.37959 4.8544,-1.20395 1.52958,-0.78681 2.81005,-1.98293 3.70034,-3.45522 0.8903,-1.47216 1.35426,-3.16286 1.34089,-4.88325 z m 16.73369,40.55223 c 0.0153,-0.91251 -0.1312,-1.82111 -0.43132,-2.68375 -1.28418,-4.18844 -2.68345,-8.4727 -4.18811,-12.66112 -0.59043,-2.03766 -1.83729,-3.82435 -3.54618,-5.08176 -1.70878,-1.25743 -3.78559,-1.91693 -5.90655,-1.87472 -2.12099,0.0424 -4.17003,0.784 -5.82715,2.10863 -1.65801,1.32455 -2.83213,3.16005 -3.34095,5.21972 -0.50899,2.05966 -0.32389,4.23049 0.52611,6.17433 1.3994,3.7572 2.68354,7.72509 3.75687,11.58779 0.67093,2.22737 2.12101,4.14135 4.08395,5.38925 1.96369,1.24721 4.3108,1.74835 6.6129,1.41003 2.30113,-0.3374 4.40579,-1.49249 5.92671,-3.25214 1.52204,-1.7597 2.36061,-4.0101 2.36253,-6.33626 z m 8.69278,60.19096 c 0.006,-10.66278 -0.7476,-21.31224 -2.25227,-31.86866 -0.36993,-2.53216 -1.73195,-4.81521 -3.78375,-6.34495 -2.05101,-1.52862 -4.62908,-2.18046 -7.16123,-1.81146 -2.53208,0.36997 -4.81596,1.73195 -6.34476,3.78396 -1.52945,2.05209 -2.18118,4.6294 -1.81125,7.16165 4.37039,30.81044 1.69354,62.21427 -7.83003,91.83924 -0.78317,2.43246 -0.56749,5.07775 0.59892,7.35032 1.16634,2.27345 3.18943,3.99206 5.621,4.77401 2.43142,0.78303 5.07765,0.56759 7.35003,-0.59889 2.27222,-1.16546 3.99076,-3.18893 4.7738,-5.62144 7.20429,-22.16809 10.87213,-45.33395 10.86829,-68.64451 z m -20.922,92.01164 c -9e-4,-2.18417 -0.74371,-4.30622 -2.10658,-6.01414 -1.36281,-1.70799 -3.26623,-2.90415 -5.39669,-3.39026 -2.12962,-0.48679 -4.36362,-0.23466 -6.33224,0.71216 -1.96856,0.94706 -3.55952,2.53617 -4.50831,4.50389 -2.35772,4.79234 -4.79207,9.65176 -7.61924,14.2714 -1.29494,2.20441 -1.66102,4.83545 -1.01796,7.3102 0.64305,2.47371 2.2446,4.59382 4.44895,5.88777 2.20431,1.29479 4.8352,1.66092 7.30881,1.01784 2.47457,-0.64314 4.5936,-2.24466 5.88839,-4.44908 3.02765,-5.07129 5.78577,-10.29862 8.26145,-15.6613 0.70533,-1.28235 1.07439,-2.72391 1.07342,-4.18848 z m -24.67894,39.37344 c -0.003,-1.46166 -0.33251,-2.90401 -0.96412,-4.22298 -0.63162,-1.31785 -1.54976,-2.47852 -2.68736,-3.39671 -1.32454,-1.05138 -2.90402,-1.73291 -4.57729,-1.97733 -1.67341,-0.24345 -3.38225,-0.0391 -4.95121,0.59044 -1.56991,0.62967 -2.9441,1.66385 -3.98499,2.99709 -18.91225,24.13964 -43.08604,43.64706 -70.67472,57.03379 -27.58861,13.38586 -57.8713,20.30206 -88.53549,20.21784 -9.50821,0.01 -19.0062,-0.63076 -28.42632,-1.91707 -2.45349,-0.17739 -4.88497,0.58369 -6.79801,2.12981 -1.91287,1.54591 -3.16835,3.76379 -3.50963,6.20028 -0.3412,2.43526 0.25688,4.91294 1.67239,6.92471 1.41461,2.01177 3.54436,3.4121 5.95177,3.91434 10.30948,1.41278 20.70345,2.1297 31.1098,2.147 33.59693,0.0904 66.77495,-7.48851 97.00102,-22.15665 30.2261,-14.66915 56.70981,-36.04467 77.42859,-62.49421 1.26815,-1.74452 1.94078,-3.85205 1.91689,-6.0094 z m -227.44861,72.21008 c 0.0194,-2.07503 -0.6431,-4.10123 -1.88131,-5.76694 -1.23831,-1.66585 -2.98831,-2.88219 -4.98089,-3.463 -9.94245,-2.92128 -19.62919,-6.65271 -28.96298,-11.1565 -2.31837,-1.09449 -4.97987,-1.22392 -7.39405,-0.35937 -2.41328,0.8655 -4.38668,2.65583 -5.48213,4.97439 -1.09539,2.31958 -1.22484,4.98012 -0.35932,7.39457 0.86537,2.41427 2.65572,4.38785 4.97397,5.48232 10.30009,4.85935 20.93747,8.96922 31.8286,12.29692 1.62934,0.48496 3.35837,0.53202 5.01076,0.13426 1.65323,-0.39778 3.17125,-1.2249 4.40185,-2.39814 1.23058,-1.17316 2.12957,-2.65014 2.60591,-4.28238 0.20797,-0.91531 0.31718,-1.84979 0.32587,-2.78913 z m -59.75657,-28.54292 c 9.8e-4,-1.56403 -0.37858,-3.10435 -1.10786,-4.48832 -0.73034,-1.3832 -1.78741,-2.56679 -3.08033,-3.44754 -25.94689,-17.87237 -47.39488,-41.52694 -62.65093,-69.09509 -0.98551,-1.77895 -2.50959,-3.20045 -4.35239,-4.06002 -1.84283,-0.85989 -3.91144,-1.11473 -5.90767,-0.72644 -1.99635,0.38713 -3.81947,1.39732 -5.20664,2.88391 -1.38713,1.48737 -2.2684,3.37664 -2.51661,5.39519 -0.2482,2.01842 0.14901,4.0638 1.13458,5.84276 16.75272,30.16923 40.22431,56.08199 68.59286,75.72753 1.94097,1.33125 4.30145,1.90728 6.63712,1.6217 2.33465,-0.28579 4.48723,-1.4157 6.04942,-3.17442 1.56228,-1.75974 2.42958,-4.03046 2.43719,-6.3834 z m 65.01822,-13.19781 c -0.0214,-2.00895 -0.65939,-3.96427 -1.8306,-5.59641 -1.17107,-1.63325 -2.8186,-2.86487 -4.71538,-3.52814 -25.64687,-8.82447 -48.66869,-23.95856 -66.93971,-44.00461 -18.272,-20.04608 -31.21333,-44.36788 -37.63187,-70.72248 -0.43795,-2.03292 -1.52087,-3.87026 -3.08595,-5.2398 -1.56514,-1.36873 -3.53076,-2.19784 -5.60285,-2.3616 -2.07299,-0.16497 -4.14478,0.34389 -5.90583,1.44996 -1.76109,1.10514 -3.11958,2.7499 -3.87247,4.68879 -0.75294,1.938 -0.86095,4.06866 -0.30795,6.07283 7.17751,29.53386 21.67337,56.79042 42.14762,79.25179 20.4736,22.46146 46.27481,39.41258 75.01739,49.28668 1.60053,0.55588 3.31893,0.67662 4.98177,0.35168 1.66184,-0.32492 3.20879,-1.08497 4.4816,-2.20244 1.2735,-1.11754 2.22709,-2.55241 2.76586,-4.15882 0.33442,-1.04083 0.51563,-2.12588 0.53669,-3.22036 z M 209.54473,340.3305 c -0.0493,-2.38941 -0.98139,-4.6772 -2.61742,-6.41967 -1.63515,-1.74351 -3.86053,-2.81886 -6.24105,-3.0192 -2.38177,-0.20032 -4.75487,0.48984 -6.65806,1.93513 -1.90345,1.44535 -3.20498,3.54629 -3.6516,5.89365 -1.9262,11.46977 -2.73194,23.09963 -2.40557,34.72475 0.11234,2.52179 1.2085,4.90161 3.05217,6.62586 1.84334,1.72426 4.2911,2.65965 6.81458,2.6031 2.52351,-0.057 4.92715,-1.09923 6.69159,-2.90409 1.76442,-1.80488 2.75342,-4.23155 2.75342,-6.75624 -0.30375,-10.41543 0.41511,-20.83579 2.14704,-31.1115 0.0884,-0.53174 0.12354,-1.0705 0.10538,-1.61006 z m 131.3014,-138.62139 c -0.0184,-0.7198 -0.0869,-1.43678 -0.21079,-2.14698 -0.36233,-1.65321 -1.15585,-3.18162 -2.2992,-4.42908 -1.14436,-1.24734 -2.59824,-2.16978 -4.21507,-2.67288 -1.61585,-0.50305 -3.33716,-0.56915 -4.98662,-0.19138 -28.60742,6.40669 -55.23195,19.67949 -77.56753,38.66839 -22.33661,18.98995 -39.72011,43.1315 -50.64785,70.33627 -0.78682,1.89683 -0.94789,3.99582 -0.46006,5.99023 0.48778,1.9937 1.59947,3.78122 3.17141,5.10106 1.57271,1.31976 3.52695,2.10381 5.57502,2.23705 2.04909,0.13409 4.08759,-0.38912 5.81848,-1.49326 1.73093,-1.10417 3.06499,-2.73257 3.80775,-4.64671 9.73829,-24.31596 25.25672,-45.89752 45.20797,-62.8708 19.95106,-16.97231 43.73968,-28.83125 69.30221,-34.54656 2.13154,-0.45913 4.0407,-1.63801 5.40742,-3.3374 1.3656,-1.69922 2.10645,-3.8176 2.09686,-5.99795 z m 51.0735,-3.66091 c -0.0253,-2.42471 -0.94886,-4.75597 -2.59351,-6.53739 -1.64462,-1.78132 -3.89496,-2.88853 -6.31005,-3.10467 -4.725,-0.43127 -9.65116,-0.53669 -14.37616,-0.53669 -2.57808,0 -5.14662,0 -7.61926,0.10542 -2.03861,0.0909 -3.99752,0.82559 -5.59332,2.09765 -1.59577,1.27218 -2.74872,3.01764 -3.29215,4.98488 -0.54335,1.96719 -0.45041,4.05711 0.26646,5.96838 0.71695,1.91104 2.02037,3.54624 3.72341,4.6715 1.70311,1.12426 3.71968,1.6811 5.75798,1.59008 2.25241,-0.10544 4.50447,-0.10544 6.86227,-0.10544 4.29369,0 8.69278,0.21084 12.87139,0.5368 1.69639,0.13986 3.40046,-0.17178 4.93673,-0.90293 1.5373,-0.73226 2.85323,-1.85848 3.81435,-3.26354 0.96048,-1.40512 1.53263,-3.03931 1.65726,-4.73736 -0.0974,-0.24303 -0.1342,-0.50636 -0.1054,-0.76669 z m 148.48554,115.78099 c -0.022,-1.05909 -0.20203,-2.10939 -0.53665,-3.11491 -9.59173,-28.23034 -25.99768,-53.66501 -47.76024,-74.04352 -21.76253,-20.37957 -48.21726,-35.08243 -77.01437,-42.80141 -2.47473,-0.65433 -5.11118,-0.29828 -7.32331,0.989 -2.21296,1.2874 -3.82491,3.40329 -4.47958,5.87795 -0.65455,2.4757 -0.29808,5.11147 0.9891,7.32453 1.28718,2.21203 3.40329,3.82516 5.87788,4.47884 25.70922,6.87695 49.32815,19.99421 68.75403,38.18582 19.42595,18.19153 34.06461,40.90021 42.61259,66.10373 0.53764,1.60644 1.49225,3.04118 2.766,4.15871 1.27275,1.11754 2.81963,1.87765 4.48148,2.20258 1.66287,0.32485 3.3813,0.20409 4.98183,-0.35175 1.93689,-0.57418 3.63424,-1.76563 4.8341,-3.39011 1.20002,-1.62556 1.83824,-3.59912 1.81714,-5.61946 z m 8.69276,45.23916 v -0.53674 c -0.32773,-5.31259 -0.86545,-10.61102 -1.60998,-15.88159 -0.3702,-2.53228 -1.73191,-4.81533 -3.78387,-6.34501 -2.05101,-1.5287 -4.6292,-2.18052 -7.1613,-1.81146 -2.53201,0.36995 -4.8159,1.73195 -6.34458,3.78403 -1.52957,2.05196 -2.18131,4.62934 -1.81137,7.16162 0.64216,4.7251 1.17885,9.44067 1.3994,14.16581 0.10818,2.53428 1.20938,4.92745 3.06482,6.6566 1.85651,1.72908 4.31958,2.65965 6.85548,2.58965 2.53498,-0.0713 4.94341,-1.13673 6.70023,-2.96632 1.75681,-1.82961 2.72388,-4.27957 2.69117,-6.81659 z m -0.95838,30.153 c -0.0646,-2.41538 -1.03598,-4.71946 -2.7189,-6.45334 -1.68305,-1.73283 -3.95927,-2.77085 -6.37159,-2.90593 -2.41227,-0.13518 -4.78914,0.64207 -6.65513,2.17663 -1.86591,1.5344 -3.08891,3.71685 -3.42243,6.10917 -3.62371,30.42804 -15.91442,59.18457 -35.4035,82.82973 -1.55455,1.98591 -2.2743,4.50181 -2.00306,7.00923 0.2712,2.50726 1.51133,4.81225 3.45392,6.41968 1.94379,1.60729 4.43946,2.39328 6.95335,2.18907 2.51299,-0.20412 4.85052,-1.38292 6.5084,-3.28268 21.80962,-26.50228 35.55411,-58.72166 39.59174,-92.80726 0.0836,-0.42271 0.11892,-0.85295 0.10539,-1.2843 z m -59.21981,109.86772 c 0.0184,-2.47283 -0.92291,-4.85938 -2.62235,-6.65548 -1.70008,-1.7962 -4.0309,-2.86676 -6.50071,-2.98561 -2.47077,-0.11884 -4.89377,0.7228 -6.75777,2.34729 -3.65148,3.11496 -7.61918,6.11499 -11.50084,8.90406 -1.66568,1.16738 -2.91927,2.83225 -3.58154,4.75487 -0.66125,1.92268 -0.69677,4.00631 -0.10252,5.95107 0.59507,1.94466 1.7913,3.65165 3.41484,4.87463 1.62448,1.22391 3.59494,1.90255 5.62775,1.93711 2.03371,0.0362 4.02621,-0.57412 5.69196,-1.7415 4.39909,-3.11504 8.79817,-6.44083 12.8714,-9.97755 1.09446,-0.89323 1.97236,-2.02328 2.56654,-3.3047 0.59421,-1.28154 0.88944,-2.68179 0.86451,-4.09448 z m -40.01341,25.42785 c -0.0289,-1.36581 -0.32107,-2.71344 -0.86258,-3.96799 -1.07825,-2.30803 -3.01992,-4.10415 -5.40542,-5.00031 -2.38544,-0.89527 -5.02968,-0.82042 -7.36057,0.20802 -20.91523,9.53083 -43.64381,14.4353 -66.62827,14.37697 -6.56309,-0.0194 -13.11958,-0.41132 -19.63776,-1.17903 -2.4525,-0.12754 -4.86292,0.68337 -6.73931,2.26669 -1.87766,1.58344 -3.08233,3.82429 -3.36897,6.26262 -0.28661,2.43917 0.36611,4.89772 1.82484,6.87309 1.45867,1.97536 3.61603,3.32295 6.03129,3.76679 7.26087,0.86824 14.56779,1.30631 21.88033,1.31295 25.72365,0.08 51.16253,-5.41047 74.56388,-16.09248 1.6983,-0.75618 3.14075,-1.99153 4.14996,-3.55394 1.00917,-1.56223 1.54197,-3.38424 1.53341,-5.24466 z M 316.38768,483.56216 c 0.006,-1.73588 -0.46001,-3.44184 -1.34749,-4.93409 -0.88849,-1.4924 -2.16501,-2.71534 -3.69375,-3.53862 -9.03394,-4.84409 -17.40954,-10.82961 -24.91845,-17.80811 -1.87754,-1.73482 -4.37035,-2.65499 -6.92543,-2.55439 -2.55524,0.10066 -4.96741,1.21342 -6.70309,3.09103 -1.73573,1.87868 -2.65484,4.37151 -2.55405,6.92578 0.10048,2.55541 1.2132,4.96876 3.0907,6.70341 8.66973,8.05975 18.33238,14.98172 28.75216,20.59729 2.24557,1.21821 4.88404,1.49998 7.33565,0.78117 2.45148,-0.71796 4.52279,-2.37802 5.75613,-4.61491 0.73893,-1.42624 1.1424,-3.00387 1.17879,-4.61024 z m -48.81152,-45.81423 c 0.0194,-1.82579 -0.50511,-3.61718 -1.50468,-5.14685 -11.97731,-19.16913 -18.28459,-41.34392 -18.19066,-63.94811 0.007,-21.94293 5.97001,-43.47847 17.25144,-62.29969 1.11647,-1.75685 1.63784,-3.82812 1.48645,-5.90407 -0.15047,-2.07597 -0.96615,-4.05058 -2.32512,-5.62706 -1.35906,-1.57764 -3.18951,-2.676 -5.22045,-3.13322 -2.03084,-0.45613 -4.15658,-0.24727 -6.05903,0.5971 -1.90334,0.84345 -3.48477,2.27831 -4.51029,4.08965 -13.32275,22.14522 -20.26541,47.54908 -20.0575,73.39287 0.20796,25.84283 7.55899,51.13181 21.23629,73.05918 1.35916,2.16704 3.52025,3.71114 6.01116,4.29392 2.48996,0.58272 5.11217,0.15905 7.29147,-1.17894 1.409,-0.84345 2.57535,-2.0386 3.38332,-3.46861 0.80788,-1.43001 1.23052,-3.045 1.22687,-4.68785 z m 31.22476,-172.522 c -0.009,-2.41341 -0.92197,-4.73855 -2.55789,-6.51266 -1.63515,-1.77507 -3.87878,-2.87344 -6.28333,-3.07855 -2.40466,-0.20427 -4.80166,0.49943 -6.71369,1.9716 -4.34254,3.31225 -8.47145,6.89407 -12.36349,10.72506 -1.83429,1.77877 -2.88847,4.21621 -2.92781,6.77154 -0.0397,2.55516 0.93819,5.0232 2.71702,6.85764 1.77883,1.83454 4.21606,2.88897 6.77018,2.92808 2.55526,0.0405 5.02399,-0.9383 6.85841,-2.71729 3.36107,-3.2759 6.90723,-6.35739 10.61923,-9.2298 1.18833,-0.90675 2.15241,-2.07603 2.81761,-3.41502 0.66419,-1.33995 1.01203,-2.81404 1.01586,-4.31015 z m 119.30225,-20.92298 c -0.006,-2.05492 -0.66328,-4.05614 -1.87656,-5.71438 -1.21437,-1.65811 -2.92312,-2.88877 -4.88018,-3.51563 -31.64751,-10.10299 -65.87504,-8.65955 -96.55929,4.07345 -2.36053,0.99673 -4.2304,2.89164 -5.19555,5.26485 -0.96507,2.374 -0.94681,5.03568 0.0489,7.39634 0.99575,2.36071 2.89057,4.2316 5.26453,5.19579 2.37295,0.96514 5.03547,0.94785 7.39603,-0.0489 26.46545,-10.93597 55.95919,-12.18866 83.25651,-3.53673 2.43155,0.77353 5.07292,0.55309 7.3434,-0.61147 2.27036,-1.16442 3.9898,-3.18202 4.78046,-5.60884 0.25305,-0.94509 0.39395,-1.91591 0.42172,-2.89452 z m 42.38065,23.06994 c 0.007,-1.43673 -0.30664,-2.85716 -0.91911,-4.15682 -0.61136,-1.29958 -1.50562,-2.44695 -2.61741,-3.35755 -4.21214,-3.44467 -8.61799,-6.64483 -13.19725,-9.58442 -2.15825,-1.29008 -4.73735,-1.68697 -7.18417,-1.10325 -2.44578,0.58274 -4.56872,2.10012 -5.91322,4.22586 -1.34378,2.12489 -1.80378,4.69448 -1.28251,7.15391 0.52237,2.46035 1.98582,4.62066 4.07708,6.0172 3.9707,2.49862 7.77175,5.25906 11.37628,8.26185 2.00307,1.59488 4.5534,2.34151 7.09987,2.07992 2.54651,-0.2617 4.89173,-1.51054 6.52859,-3.47927 1.27658,-1.78753 1.98779,-3.91816 2.04143,-6.11492 z m 48.27496,101.28008 c 0.0588,-30.56429 -9.93297,-60.31665 -28.42635,-84.65079 -1.54971,-2.03298 -3.84616,-3.36822 -6.38003,-3.70929 -2.53312,-0.34121 -5.10072,0.33834 -7.13346,1.88818 -2.03281,1.55062 -3.36789,3.84721 -3.70908,6.3804 -0.34114,2.53318 0.33836,5.1009 1.88807,7.13384 19.21601,25.55815 27.62125,57.68077 23.38506,89.37602 -0.34215,2.53216 0.33736,5.09893 1.88616,7.13172 1.5488,2.03198 3.84322,3.36714 6.3753,3.70828 2.53198,0.34225 5.09872,-0.33634 7.13057,-1.8853 2.0319,-1.54887 3.36692,-3.84426 3.70902,-6.37654 0.85197,-6.29609 1.27754,-12.64294 1.27474,-18.99652 z m -9.00912,47.8556 c -8.7e-4,-2.25144 -0.78779,-4.43391 -2.22444,-6.16763 -1.43568,-1.73386 -3.43393,-2.91183 -5.64596,-3.33173 -2.21205,-0.41859 -4.50261,-0.053 -6.47398,1.03625 -1.97052,1.08788 -3.50101,2.8312 -4.32546,4.92639 -3.38787,8.53123 -7.70444,16.66274 -12.8713,24.24886 -1.15962,1.67643 -1.75958,3.67678 -1.71257,5.71437 0.0472,2.03676 0.7379,4.00829 1.97328,5.62802 1.23538,1.62073 2.95191,2.80925 4.90418,3.39503 1.95227,0.58458 4.03967,0.53666 5.96317,-0.1372 1.92261,-0.67373 3.58354,-1.9399 4.7432,-3.61623 6.01396,-8.7938 11.01396,-18.24036 14.90318,-28.15941 0.50219,-1.11096 0.75708,-2.31755 0.74759,-3.53672 z m -35.40347,50.21346 c 0.0173,-2.32517 -0.82316,-4.57751 -2.35764,-6.32581 -1.6945,-1.91687 -4.08184,-3.08614 -6.63603,-3.24831 -2.55412,-0.16089 -5.06992,0.69693 -6.99249,2.38564 -22.03946,19.35424 -50.38906,30.03616 -79.72012,30.03809 -9.47003,0.0324 -18.90931,-1.08503 -28.11,-3.32593 -2.48903,-0.58272 -5.11021,-0.1533 -7.28194,1.19418 -2.1727,1.34771 -3.72251,3.50613 -4.3052,5.99431 -0.58269,2.48907 -0.15335,5.1106 1.19411,7.28342 1.3475,2.17178 3.50492,3.7216 5.99395,4.30439 10.67481,2.5408 21.613,3.80206 32.58578,3.7571 33.98116,0.0184 66.83149,-12.34591 92.37105,-34.76318 1.01865,-0.92113 1.83243,-2.04637 2.3874,-3.30384 0.55491,-1.25652 0.83863,-2.61566 0.83288,-3.99006 z"
     sodipodi:nodetypes="cccccccccccccccccccccccccccccccccccccccccccccccccccccccccccccccccccccccccccccccccccccccccccccccccccccccccccccccccccccccccccccccccccccccccccccccccccccccccccccccccccccccccccccccccccccccccccccccccccccccccccccccccccccccccccccccccccccccccccccccccccccccccccccccccccccccccccccccccccccccccccccccccccccccccccccccccccccccccccccccccccccccccccccccccccccccccccccccccccccccccccccccccccccccccccccccccccccccccccccccccccccccccccccccccccccccccccccccccccccccccccccccccccccccccccccccccccccc" />
</svg>
